<svg width="696" height="189" viewBox="0 0 696 189" fill="none" xmlns="http://www.w3.org/2000/svg">
<rect x="95" y="42" width="477" height="109" fill="#9F85C1"/>
<rect width="248" height="53" fill="#CDB6ED"/>
<rect x="392" y="136" width="304" height="53" fill="#B69BDA"/>
<path d="M52.0312 26.2695C52.0312 29.0977 51.2617 31.2617 49.7227 32.7617C48.1914 34.2539 45.9844 35 43.1016 35H38.3555V17.8672H43.6055C46.2695 17.8672 48.3398 18.6055 49.8164 20.082C51.293 21.5586 52.0312 23.6211 52.0312 26.2695ZM49.9219 26.3398C49.9219 24.1055 49.3594 22.4219 48.2344 21.2891C47.1172 20.1562 45.4531 19.5898 43.2422 19.5898H40.3477V33.2773H42.7734C45.1484 33.2773 46.9336 32.6953 48.1289 31.5312C49.3242 30.3594 49.9219 28.6289 49.9219 26.3398ZM57.3984 22.1562V30.4883C57.3984 31.5352 57.6367 32.3164 58.1133 32.832C58.5898 33.3477 59.3359 33.6055 60.3516 33.6055C61.6953 33.6055 62.6758 33.2383 63.293 32.5039C63.918 31.7695 64.2305 30.5703 64.2305 28.9062V22.1562H66.1758V35H64.5703L64.2891 33.2773H64.1836C63.7852 33.9102 63.2305 34.3945 62.5195 34.7305C61.8164 35.0664 61.0117 35.2344 60.1055 35.2344C58.543 35.2344 57.3711 34.8633 56.5898 34.1211C55.8164 33.3789 55.4297 32.1914 55.4297 30.5586V22.1562H57.3984ZM72.2344 28.4258C72.5703 27.9492 73.082 27.3242 73.7695 26.5508L77.918 22.1562H80.2266L75.0234 27.6289L80.5898 35H78.2344L73.6992 28.9297L72.2344 30.1953V35H70.3125V16.7656H72.2344V26.4336C72.2344 26.8633 72.2031 27.5273 72.1406 28.4258H72.2344ZM88.3477 35.2344C86.4492 35.2344 84.9492 34.6562 83.8477 33.5C82.7539 32.3438 82.207 30.7383 82.207 28.6836C82.207 26.6133 82.7148 24.9688 83.7305 23.75C84.7539 22.5312 86.125 21.9219 87.8438 21.9219C89.4531 21.9219 90.7266 22.4531 91.6641 23.5156C92.6016 24.5703 93.0703 25.9648 93.0703 27.6992V28.9297H84.2227C84.2617 30.4375 84.6406 31.582 85.3594 32.3633C86.0859 33.1445 87.1055 33.5352 88.418 33.5352C89.8008 33.5352 91.168 33.2461 92.5195 32.668V34.4023C91.832 34.6992 91.1797 34.9102 90.5625 35.0352C89.9531 35.168 89.2148 35.2344 88.3477 35.2344ZM87.8203 23.5508C86.7891 23.5508 85.9648 23.8867 85.3477 24.5586C84.7383 25.2305 84.3789 26.1602 84.2695 27.3477H90.9844C90.9844 26.1211 90.7109 25.1836 90.1641 24.5352C89.6172 23.8789 88.8359 23.5508 87.8203 23.5508ZM115.863 17.8672V28.9531C115.863 30.9062 115.273 32.4414 114.094 33.5586C112.914 34.6758 111.293 35.2344 109.23 35.2344C107.168 35.2344 105.57 34.6719 104.438 33.5469C103.312 32.4219 102.75 30.875 102.75 28.9062V17.8672H104.742V29.0469C104.742 30.4766 105.133 31.5742 105.914 32.3398C106.695 33.1055 107.844 33.4883 109.359 33.4883C110.805 33.4883 111.918 33.1055 112.699 32.3398C113.48 31.5664 113.871 30.4609 113.871 29.0234V17.8672H115.863ZM128.906 35V26.6914C128.906 25.6445 128.668 24.8633 128.191 24.3477C127.715 23.832 126.969 23.5742 125.953 23.5742C124.609 23.5742 123.625 23.9375 123 24.6641C122.375 25.3906 122.062 26.5898 122.062 28.2617V35H120.117V22.1562H121.699L122.016 23.9141H122.109C122.508 23.2812 123.066 22.793 123.785 22.4492C124.504 22.0977 125.305 21.9219 126.188 21.9219C127.734 21.9219 128.898 22.2969 129.68 23.0469C130.461 23.7891 130.852 24.9805 130.852 26.6211V35H128.906ZM136.805 35H134.859V22.1562H136.805V35ZM134.695 18.6758C134.695 18.2305 134.805 17.9062 135.023 17.7031C135.242 17.4922 135.516 17.3867 135.844 17.3867C136.156 17.3867 136.426 17.4922 136.652 17.7031C136.879 17.9141 136.992 18.2383 136.992 18.6758C136.992 19.1133 136.879 19.4414 136.652 19.6602C136.426 19.8711 136.156 19.9766 135.844 19.9766C135.516 19.9766 135.242 19.8711 135.023 19.6602C134.805 19.4414 134.695 19.1133 134.695 18.6758ZM143.742 35L138.867 22.1562H140.953L143.719 29.7734C144.344 31.5547 144.711 32.7109 144.82 33.2422H144.914C145 32.8281 145.27 31.9727 145.723 30.6758C146.184 29.3711 147.211 26.5312 148.805 22.1562H150.891L146.016 35H143.742ZM158.379 35.2344C156.48 35.2344 154.98 34.6562 153.879 33.5C152.785 32.3438 152.238 30.7383 152.238 28.6836C152.238 26.6133 152.746 24.9688 153.762 23.75C154.785 22.5312 156.156 21.9219 157.875 21.9219C159.484 21.9219 160.758 22.4531 161.695 23.5156C162.633 24.5703 163.102 25.9648 163.102 27.6992V28.9297H154.254C154.293 30.4375 154.672 31.582 155.391 32.3633C156.117 33.1445 157.137 33.5352 158.449 33.5352C159.832 33.5352 161.199 33.2461 162.551 32.668V34.4023C161.863 34.6992 161.211 34.9102 160.594 35.0352C159.984 35.168 159.246 35.2344 158.379 35.2344ZM157.852 23.5508C156.82 23.5508 155.996 23.8867 155.379 24.5586C154.77 25.2305 154.41 26.1602 154.301 27.3477H161.016C161.016 26.1211 160.742 25.1836 160.195 24.5352C159.648 23.8789 158.867 23.5508 157.852 23.5508ZM172.289 21.9219C172.859 21.9219 173.371 21.9688 173.824 22.0625L173.555 23.8672C173.023 23.75 172.555 23.6914 172.148 23.6914C171.109 23.6914 170.219 24.1133 169.477 24.957C168.742 25.8008 168.375 26.8516 168.375 28.1094V35H166.43V22.1562H168.035L168.258 24.5352H168.352C168.828 23.6992 169.402 23.0547 170.074 22.6016C170.746 22.1484 171.484 21.9219 172.289 21.9219ZM184.512 31.4961C184.512 32.6914 184.066 33.6133 183.176 34.2617C182.285 34.9102 181.035 35.2344 179.426 35.2344C177.723 35.2344 176.395 34.9648 175.441 34.4258V32.6211C176.059 32.9336 176.719 33.1797 177.422 33.3594C178.133 33.5391 178.816 33.6289 179.473 33.6289C180.488 33.6289 181.27 33.4688 181.816 33.1484C182.363 32.8203 182.637 32.3242 182.637 31.6602C182.637 31.1602 182.418 30.7344 181.98 30.3828C181.551 30.0234 180.707 29.6016 179.449 29.1172C178.254 28.6719 177.402 28.2852 176.895 27.957C176.395 27.6211 176.02 27.2422 175.77 26.8203C175.527 26.3984 175.406 25.8945 175.406 25.3086C175.406 24.2617 175.832 23.4375 176.684 22.8359C177.535 22.2266 178.703 21.9219 180.188 21.9219C181.57 21.9219 182.922 22.2031 184.242 22.7656L183.551 24.3477C182.262 23.8164 181.094 23.5508 180.047 23.5508C179.125 23.5508 178.43 23.6953 177.961 23.9844C177.492 24.2734 177.258 24.6719 177.258 25.1797C177.258 25.5234 177.344 25.8164 177.516 26.0586C177.695 26.3008 177.98 26.5312 178.371 26.75C178.762 26.9688 179.512 27.2852 180.621 27.6992C182.145 28.2539 183.172 28.8125 183.703 29.375C184.242 29.9375 184.512 30.6445 184.512 31.4961ZM189.633 35H187.688V22.1562H189.633V35ZM187.523 18.6758C187.523 18.2305 187.633 17.9062 187.852 17.7031C188.07 17.4922 188.344 17.3867 188.672 17.3867C188.984 17.3867 189.254 17.4922 189.48 17.7031C189.707 17.9141 189.82 18.2383 189.82 18.6758C189.82 19.1133 189.707 19.4414 189.48 19.6602C189.254 19.8711 188.984 19.9766 188.672 19.9766C188.344 19.9766 188.07 19.8711 187.852 19.6602C187.633 19.4414 187.523 19.1133 187.523 18.6758ZM197.906 33.6289C198.25 33.6289 198.582 33.6055 198.902 33.5586C199.223 33.5039 199.477 33.4492 199.664 33.3945V34.8828C199.453 34.9844 199.141 35.0664 198.727 35.1289C198.32 35.1992 197.953 35.2344 197.625 35.2344C195.141 35.2344 193.898 33.9258 193.898 31.3086V23.668H192.059V22.7305L193.898 21.9219L194.719 19.1797H195.844V22.1562H199.57V23.668H195.844V31.2266C195.844 32 196.027 32.5938 196.395 33.0078C196.762 33.4219 197.266 33.6289 197.906 33.6289ZM200.203 22.1562H202.289L205.102 29.4805C205.719 31.1523 206.102 32.3594 206.25 33.1016H206.344C206.445 32.7031 206.656 32.0234 206.977 31.0625C207.305 30.0938 208.367 27.125 210.164 22.1562H212.25L206.73 36.7812C206.184 38.2266 205.543 39.25 204.809 39.8516C204.082 40.4609 203.188 40.7656 202.125 40.7656C201.531 40.7656 200.945 40.6992 200.367 40.5664V39.0078C200.797 39.1016 201.277 39.1484 201.809 39.1484C203.145 39.1484 204.098 38.3984 204.668 36.8984L205.383 35.0703L200.203 22.1562Z" fill="white"/>
<path d="M443.031 162.27C443.031 165.098 442.262 167.262 440.723 168.762C439.191 170.254 436.984 171 434.102 171H429.355V153.867H434.605C437.27 153.867 439.34 154.605 440.816 156.082C442.293 157.559 443.031 159.621 443.031 162.27ZM440.922 162.34C440.922 160.105 440.359 158.422 439.234 157.289C438.117 156.156 436.453 155.59 434.242 155.59H431.348V169.277H433.773C436.148 169.277 437.934 168.695 439.129 167.531C440.324 166.359 440.922 164.629 440.922 162.34ZM454.469 171L454.082 169.172H453.988C453.348 169.977 452.707 170.523 452.066 170.812C451.434 171.094 450.641 171.234 449.688 171.234C448.414 171.234 447.414 170.906 446.688 170.25C445.969 169.594 445.609 168.66 445.609 167.449C445.609 164.855 447.684 163.496 451.832 163.371L454.012 163.301V162.504C454.012 161.496 453.793 160.754 453.355 160.277C452.926 159.793 452.234 159.551 451.281 159.551C450.211 159.551 449 159.879 447.648 160.535L447.051 159.047C447.684 158.703 448.375 158.434 449.125 158.238C449.883 158.043 450.641 157.945 451.398 157.945C452.93 157.945 454.062 158.285 454.797 158.965C455.539 159.645 455.91 160.734 455.91 162.234V171H454.469ZM450.074 169.629C451.285 169.629 452.234 169.297 452.922 168.633C453.617 167.969 453.965 167.039 453.965 165.844V164.684L452.02 164.766C450.473 164.82 449.355 165.062 448.668 165.492C447.988 165.914 447.648 166.574 447.648 167.473C447.648 168.176 447.859 168.711 448.281 169.078C448.711 169.445 449.309 169.629 450.074 169.629ZM464.078 169.629C464.422 169.629 464.754 169.605 465.074 169.559C465.395 169.504 465.648 169.449 465.836 169.395V170.883C465.625 170.984 465.312 171.066 464.898 171.129C464.492 171.199 464.125 171.234 463.797 171.234C461.312 171.234 460.07 169.926 460.07 167.309V159.668H458.23V158.73L460.07 157.922L460.891 155.18H462.016V158.156H465.742V159.668H462.016V167.227C462.016 168 462.199 168.594 462.566 169.008C462.934 169.422 463.438 169.629 464.078 169.629ZM476.312 171L475.926 169.172H475.832C475.191 169.977 474.551 170.523 473.91 170.812C473.277 171.094 472.484 171.234 471.531 171.234C470.258 171.234 469.258 170.906 468.531 170.25C467.812 169.594 467.453 168.66 467.453 167.449C467.453 164.855 469.527 163.496 473.676 163.371L475.855 163.301V162.504C475.855 161.496 475.637 160.754 475.199 160.277C474.77 159.793 474.078 159.551 473.125 159.551C472.055 159.551 470.844 159.879 469.492 160.535L468.895 159.047C469.527 158.703 470.219 158.434 470.969 158.238C471.727 158.043 472.484 157.945 473.242 157.945C474.773 157.945 475.906 158.285 476.641 158.965C477.383 159.645 477.754 160.734 477.754 162.234V171H476.312ZM471.918 169.629C473.129 169.629 474.078 169.297 474.766 168.633C475.461 167.969 475.809 167.039 475.809 165.844V164.684L473.863 164.766C472.316 164.82 471.199 165.062 470.512 165.492C469.832 165.914 469.492 166.574 469.492 167.473C469.492 168.176 469.703 168.711 470.125 169.078C470.555 169.445 471.152 169.629 471.918 169.629ZM499.164 158.859C499.164 160.594 498.57 161.93 497.383 162.867C496.203 163.797 494.512 164.262 492.309 164.262H490.293V171H488.301V153.867H492.742C497.023 153.867 499.164 155.531 499.164 158.859ZM490.293 162.551H492.086C493.852 162.551 495.129 162.266 495.918 161.695C496.707 161.125 497.102 160.211 497.102 158.953C497.102 157.82 496.73 156.977 495.988 156.422C495.246 155.867 494.09 155.59 492.52 155.59H490.293V162.551ZM504.414 171H502.469V158.156H504.414V171ZM502.305 154.676C502.305 154.23 502.414 153.906 502.633 153.703C502.852 153.492 503.125 153.387 503.453 153.387C503.766 153.387 504.035 153.492 504.262 153.703C504.488 153.914 504.602 154.238 504.602 154.676C504.602 155.113 504.488 155.441 504.262 155.66C504.035 155.871 503.766 155.977 503.453 155.977C503.125 155.977 502.852 155.871 502.633 155.66C502.414 155.441 502.305 155.113 502.305 154.676ZM514.516 171.234C513.68 171.234 512.914 171.082 512.219 170.777C511.531 170.465 510.953 169.988 510.484 169.348H510.344C510.438 170.098 510.484 170.809 510.484 171.48V176.766H508.539V158.156H510.121L510.391 159.914H510.484C510.984 159.211 511.566 158.703 512.23 158.391C512.895 158.078 513.656 157.922 514.516 157.922C516.219 157.922 517.531 158.504 518.453 159.668C519.383 160.832 519.848 162.465 519.848 164.566C519.848 166.676 519.375 168.316 518.43 169.488C517.492 170.652 516.188 171.234 514.516 171.234ZM514.234 159.574C512.922 159.574 511.973 159.938 511.387 160.664C510.801 161.391 510.5 162.547 510.484 164.133V164.566C510.484 166.371 510.785 167.664 511.387 168.445C511.988 169.219 512.953 169.605 514.281 169.605C515.391 169.605 516.258 169.156 516.883 168.258C517.516 167.359 517.832 166.121 517.832 164.543C517.832 162.941 517.516 161.715 516.883 160.863C516.258 160.004 515.375 159.574 514.234 159.574ZM528.684 171.234C526.785 171.234 525.285 170.656 524.184 169.5C523.09 168.344 522.543 166.738 522.543 164.684C522.543 162.613 523.051 160.969 524.066 159.75C525.09 158.531 526.461 157.922 528.18 157.922C529.789 157.922 531.062 158.453 532 159.516C532.938 160.57 533.406 161.965 533.406 163.699V164.93H524.559C524.598 166.438 524.977 167.582 525.695 168.363C526.422 169.145 527.441 169.535 528.754 169.535C530.137 169.535 531.504 169.246 532.855 168.668V170.402C532.168 170.699 531.516 170.91 530.898 171.035C530.289 171.168 529.551 171.234 528.684 171.234ZM528.156 159.551C527.125 159.551 526.301 159.887 525.684 160.559C525.074 161.23 524.715 162.16 524.605 163.348H531.32C531.32 162.121 531.047 161.184 530.5 160.535C529.953 159.879 529.172 159.551 528.156 159.551ZM538.68 171H536.734V152.766H538.68V171ZM544.75 171H542.805V158.156H544.75V171ZM542.641 154.676C542.641 154.23 542.75 153.906 542.969 153.703C543.188 153.492 543.461 153.387 543.789 153.387C544.102 153.387 544.371 153.492 544.598 153.703C544.824 153.914 544.938 154.238 544.938 154.676C544.938 155.113 544.824 155.441 544.598 155.66C544.371 155.871 544.102 155.977 543.789 155.977C543.461 155.977 543.188 155.871 542.969 155.66C542.75 155.441 542.641 155.113 542.641 154.676ZM557.664 171V162.691C557.664 161.645 557.426 160.863 556.949 160.348C556.473 159.832 555.727 159.574 554.711 159.574C553.367 159.574 552.383 159.938 551.758 160.664C551.133 161.391 550.82 162.59 550.82 164.262V171H548.875V158.156H550.457L550.773 159.914H550.867C551.266 159.281 551.824 158.793 552.543 158.449C553.262 158.098 554.062 157.922 554.945 157.922C556.492 157.922 557.656 158.297 558.438 159.047C559.219 159.789 559.609 160.98 559.609 162.621V171H557.664ZM569.043 171.234C567.145 171.234 565.645 170.656 564.543 169.5C563.449 168.344 562.902 166.738 562.902 164.684C562.902 162.613 563.41 160.969 564.426 159.75C565.449 158.531 566.82 157.922 568.539 157.922C570.148 157.922 571.422 158.453 572.359 159.516C573.297 160.57 573.766 161.965 573.766 163.699V164.93H564.918C564.957 166.438 565.336 167.582 566.055 168.363C566.781 169.145 567.801 169.535 569.113 169.535C570.496 169.535 571.863 169.246 573.215 168.668V170.402C572.527 170.699 571.875 170.91 571.258 171.035C570.648 171.168 569.91 171.234 569.043 171.234ZM568.516 159.551C567.484 159.551 566.66 159.887 566.043 160.559C565.434 161.23 565.074 162.16 564.965 163.348H571.68C571.68 162.121 571.406 161.184 570.859 160.535C570.312 159.879 569.531 159.551 568.516 159.551ZM594.484 158.859C594.484 160.594 593.891 161.93 592.703 162.867C591.523 163.797 589.832 164.262 587.629 164.262H585.613V171H583.621V153.867H588.062C592.344 153.867 594.484 155.531 594.484 158.859ZM585.613 162.551H587.406C589.172 162.551 590.449 162.266 591.238 161.695C592.027 161.125 592.422 160.211 592.422 158.953C592.422 157.82 592.051 156.977 591.309 156.422C590.566 155.867 589.41 155.59 587.84 155.59H585.613V162.551ZM603.648 157.922C604.219 157.922 604.73 157.969 605.184 158.062L604.914 159.867C604.383 159.75 603.914 159.691 603.508 159.691C602.469 159.691 601.578 160.113 600.836 160.957C600.102 161.801 599.734 162.852 599.734 164.109V171H597.789V158.156H599.395L599.617 160.535H599.711C600.188 159.699 600.762 159.055 601.434 158.602C602.105 158.148 602.844 157.922 603.648 157.922ZM618.672 164.566C618.672 166.66 618.145 168.297 617.09 169.477C616.035 170.648 614.578 171.234 612.719 171.234C611.57 171.234 610.551 170.965 609.66 170.426C608.77 169.887 608.082 169.113 607.598 168.105C607.113 167.098 606.871 165.918 606.871 164.566C606.871 162.473 607.395 160.844 608.441 159.68C609.488 158.508 610.941 157.922 612.801 157.922C614.598 157.922 616.023 158.52 617.078 159.715C618.141 160.91 618.672 162.527 618.672 164.566ZM608.887 164.566C608.887 166.207 609.215 167.457 609.871 168.316C610.527 169.176 611.492 169.605 612.766 169.605C614.039 169.605 615.004 169.18 615.66 168.328C616.324 167.469 616.656 166.215 616.656 164.566C616.656 162.934 616.324 161.695 615.66 160.852C615.004 160 614.031 159.574 612.742 159.574C611.469 159.574 610.508 159.992 609.859 160.828C609.211 161.664 608.887 162.91 608.887 164.566ZM620.535 176.766C619.793 176.766 619.191 176.668 618.73 176.473V174.891C619.27 175.047 619.801 175.125 620.324 175.125C620.934 175.125 621.379 174.957 621.66 174.621C621.949 174.293 622.094 173.789 622.094 173.109V158.156H624.039V172.969C624.039 175.5 622.871 176.766 620.535 176.766ZM621.93 154.676C621.93 154.23 622.039 153.906 622.258 153.703C622.477 153.492 622.75 153.387 623.078 153.387C623.391 153.387 623.66 153.492 623.887 153.703C624.113 153.914 624.227 154.238 624.227 154.676C624.227 155.113 624.113 155.441 623.887 155.66C623.66 155.871 623.391 155.977 623.078 155.977C622.75 155.977 622.477 155.871 622.258 155.66C622.039 155.441 621.93 155.113 621.93 154.676ZM633.59 171.234C631.691 171.234 630.191 170.656 629.09 169.5C627.996 168.344 627.449 166.738 627.449 164.684C627.449 162.613 627.957 160.969 628.973 159.75C629.996 158.531 631.367 157.922 633.086 157.922C634.695 157.922 635.969 158.453 636.906 159.516C637.844 160.57 638.312 161.965 638.312 163.699V164.93H629.465C629.504 166.438 629.883 167.582 630.602 168.363C631.328 169.145 632.348 169.535 633.66 169.535C635.043 169.535 636.41 169.246 637.762 168.668V170.402C637.074 170.699 636.422 170.91 635.805 171.035C635.195 171.168 634.457 171.234 633.59 171.234ZM633.062 159.551C632.031 159.551 631.207 159.887 630.59 160.559C629.98 161.23 629.621 162.16 629.512 163.348H636.227C636.227 162.121 635.953 161.184 635.406 160.535C634.859 159.879 634.078 159.551 633.062 159.551ZM646.773 171.234C644.914 171.234 643.473 170.664 642.449 169.523C641.434 168.375 640.926 166.754 640.926 164.66C640.926 162.512 641.441 160.852 642.473 159.68C643.512 158.508 644.988 157.922 646.902 157.922C647.52 157.922 648.137 157.988 648.754 158.121C649.371 158.254 649.855 158.41 650.207 158.59L649.609 160.242C649.18 160.07 648.711 159.93 648.203 159.82C647.695 159.703 647.246 159.645 646.855 159.645C644.246 159.645 642.941 161.309 642.941 164.637C642.941 166.215 643.258 167.426 643.891 168.27C644.531 169.113 645.477 169.535 646.727 169.535C647.797 169.535 648.895 169.305 650.02 168.844V170.566C649.16 171.012 648.078 171.234 646.773 171.234ZM657.227 169.629C657.57 169.629 657.902 169.605 658.223 169.559C658.543 169.504 658.797 169.449 658.984 169.395V170.883C658.773 170.984 658.461 171.066 658.047 171.129C657.641 171.199 657.273 171.234 656.945 171.234C654.461 171.234 653.219 169.926 653.219 167.309V159.668H651.379V158.73L653.219 157.922L654.039 155.18H655.164V158.156H658.891V159.668H655.164V167.227C655.164 168 655.348 168.594 655.715 169.008C656.082 169.422 656.586 169.629 657.227 169.629Z" fill="white"/>
<path d="M160.062 98.5391C160.062 104.195 158.523 108.523 155.445 111.523C152.383 114.508 147.969 116 142.203 116H132.711V81.7344H143.211C148.539 81.7344 152.68 83.2109 155.633 86.1641C158.586 89.1172 160.062 93.2422 160.062 98.5391ZM155.844 98.6797C155.844 94.2109 154.719 90.8438 152.469 88.5781C150.234 86.3125 146.906 85.1797 142.484 85.1797H136.695V112.555H141.547C146.297 112.555 149.867 111.391 152.258 109.062C154.648 106.719 155.844 103.258 155.844 98.6797ZM189.312 103.133C189.312 107.32 188.258 110.594 186.148 112.953C184.039 115.297 181.125 116.469 177.406 116.469C175.109 116.469 173.07 115.93 171.289 114.852C169.508 113.773 168.133 112.227 167.164 110.211C166.195 108.195 165.711 105.836 165.711 103.133C165.711 98.9453 166.758 95.6875 168.852 93.3594C170.945 91.0156 173.852 89.8438 177.57 89.8438C181.164 89.8438 184.016 91.0391 186.125 93.4297C188.25 95.8203 189.312 99.0547 189.312 103.133ZM169.742 103.133C169.742 106.414 170.398 108.914 171.711 110.633C173.023 112.352 174.953 113.211 177.5 113.211C180.047 113.211 181.977 112.359 183.289 110.656C184.617 108.938 185.281 106.43 185.281 103.133C185.281 99.8672 184.617 97.3906 183.289 95.7031C181.977 94 180.031 93.1484 177.453 93.1484C174.906 93.1484 172.984 93.9844 171.688 95.6562C170.391 97.3281 169.742 99.8203 169.742 103.133ZM228.898 116V99.2891C228.898 97.2422 228.461 95.7109 227.586 94.6953C226.711 93.6641 225.352 93.1484 223.508 93.1484C221.086 93.1484 219.297 93.8438 218.141 95.2344C216.984 96.625 216.406 98.7656 216.406 101.656V116H212.516V99.2891C212.516 97.2422 212.078 95.7109 211.203 94.6953C210.328 93.6641 208.961 93.1484 207.102 93.1484C204.664 93.1484 202.875 93.8828 201.734 95.3516C200.609 96.8047 200.047 99.1953 200.047 102.523V116H196.156V90.3125H199.32L199.953 93.8281H200.141C200.875 92.5781 201.906 91.6016 203.234 90.8984C204.578 90.1953 206.078 89.8438 207.734 89.8438C211.75 89.8438 214.375 91.2969 215.609 94.2031H215.797C216.562 92.8594 217.672 91.7969 219.125 91.0156C220.578 90.2344 222.234 89.8438 224.094 89.8438C227 89.8438 229.172 90.5938 230.609 92.0938C232.062 93.5781 232.789 95.9609 232.789 99.2422V116H228.898ZM251.68 116.469C247.883 116.469 244.883 115.312 242.68 113C240.492 110.688 239.398 107.477 239.398 103.367C239.398 99.2266 240.414 95.9375 242.445 93.5C244.492 91.0625 247.234 89.8438 250.672 89.8438C253.891 89.8438 256.438 90.9062 258.312 93.0312C260.188 95.1406 261.125 97.9297 261.125 101.398V103.859H243.43C243.508 106.875 244.266 109.164 245.703 110.727C247.156 112.289 249.195 113.07 251.82 113.07C254.586 113.07 257.32 112.492 260.023 111.336V114.805C258.648 115.398 257.344 115.82 256.109 116.07C254.891 116.336 253.414 116.469 251.68 116.469ZM250.625 93.1016C248.562 93.1016 246.914 93.7734 245.68 95.1172C244.461 96.4609 243.742 98.3203 243.523 100.695H256.953C256.953 98.2422 256.406 96.3672 255.312 95.0703C254.219 93.7578 252.656 93.1016 250.625 93.1016ZM284.352 108.992C284.352 111.383 283.461 113.227 281.68 114.523C279.898 115.82 277.398 116.469 274.18 116.469C270.773 116.469 268.117 115.93 266.211 114.852V111.242C267.445 111.867 268.766 112.359 270.172 112.719C271.594 113.078 272.961 113.258 274.273 113.258C276.305 113.258 277.867 112.938 278.961 112.297C280.055 111.641 280.602 110.648 280.602 109.32C280.602 108.32 280.164 107.469 279.289 106.766C278.43 106.047 276.742 105.203 274.227 104.234C271.836 103.344 270.133 102.57 269.117 101.914C268.117 101.242 267.367 100.484 266.867 99.6406C266.383 98.7969 266.141 97.7891 266.141 96.6172C266.141 94.5234 266.992 92.875 268.695 91.6719C270.398 90.4531 272.734 89.8438 275.703 89.8438C278.469 89.8438 281.172 90.4062 283.812 91.5312L282.43 94.6953C279.852 93.6328 277.516 93.1016 275.422 93.1016C273.578 93.1016 272.188 93.3906 271.25 93.9688C270.312 94.5469 269.844 95.3438 269.844 96.3594C269.844 97.0469 270.016 97.6328 270.359 98.1172C270.719 98.6016 271.289 99.0625 272.07 99.5C272.852 99.9375 274.352 100.57 276.57 101.398C279.617 102.508 281.672 103.625 282.734 104.75C283.812 105.875 284.352 107.289 284.352 108.992ZM299 113.258C299.688 113.258 300.352 113.211 300.992 113.117C301.633 113.008 302.141 112.898 302.516 112.789V115.766C302.094 115.969 301.469 116.133 300.641 116.258C299.828 116.398 299.094 116.469 298.438 116.469C293.469 116.469 290.984 113.852 290.984 108.617V93.3359H287.305V91.4609L290.984 89.8438L292.625 84.3594H294.875V90.3125H302.328V93.3359H294.875V108.453C294.875 110 295.242 111.188 295.977 112.016C296.711 112.844 297.719 113.258 299 113.258ZM311.562 116H307.672V90.3125H311.562V116ZM307.344 83.3516C307.344 82.4609 307.562 81.8125 308 81.4062C308.438 80.9844 308.984 80.7734 309.641 80.7734C310.266 80.7734 310.805 80.9844 311.258 81.4062C311.711 81.8281 311.938 82.4766 311.938 83.3516C311.938 84.2266 311.711 84.8828 311.258 85.3203C310.805 85.7422 310.266 85.9531 309.641 85.9531C308.984 85.9531 308.438 85.7422 308 85.3203C307.562 84.8828 307.344 84.2266 307.344 83.3516ZM330.078 116.469C326.359 116.469 323.477 115.328 321.43 113.047C319.398 110.75 318.383 107.508 318.383 103.32C318.383 99.0234 319.414 95.7031 321.477 93.3594C323.555 91.0156 326.508 89.8438 330.336 89.8438C331.57 89.8438 332.805 89.9766 334.039 90.2422C335.273 90.5078 336.242 90.8203 336.945 91.1797L335.75 94.4844C334.891 94.1406 333.953 93.8594 332.938 93.6406C331.922 93.4062 331.023 93.2891 330.242 93.2891C325.023 93.2891 322.414 96.6172 322.414 103.273C322.414 106.43 323.047 108.852 324.312 110.539C325.594 112.227 327.484 113.07 329.984 113.07C332.125 113.07 334.32 112.609 336.57 111.688V115.133C334.852 116.023 332.688 116.469 330.078 116.469ZM375.312 81.7344H379.602L367.25 116H363.312L351.031 81.7344H355.25L363.125 103.906C364.031 106.453 364.75 108.93 365.281 111.336C365.844 108.805 366.578 106.281 367.484 103.766L375.312 81.7344ZM387.641 116H383.75V90.3125H387.641V116ZM383.422 83.3516C383.422 82.4609 383.641 81.8125 384.078 81.4062C384.516 80.9844 385.062 80.7734 385.719 80.7734C386.344 80.7734 386.883 80.9844 387.336 81.4062C387.789 81.8281 388.016 82.4766 388.016 83.3516C388.016 84.2266 387.789 84.8828 387.336 85.3203C386.883 85.7422 386.344 85.9531 385.719 85.9531C385.062 85.9531 384.516 85.7422 384.078 85.3203C383.641 84.8828 383.422 84.2266 383.422 83.3516ZM418.062 103.133C418.062 107.32 417.008 110.594 414.898 112.953C412.789 115.297 409.875 116.469 406.156 116.469C403.859 116.469 401.82 115.93 400.039 114.852C398.258 113.773 396.883 112.227 395.914 110.211C394.945 108.195 394.461 105.836 394.461 103.133C394.461 98.9453 395.508 95.6875 397.602 93.3594C399.695 91.0156 402.602 89.8438 406.32 89.8438C409.914 89.8438 412.766 91.0391 414.875 93.4297C417 95.8203 418.062 99.0547 418.062 103.133ZM398.492 103.133C398.492 106.414 399.148 108.914 400.461 110.633C401.773 112.352 403.703 113.211 406.25 113.211C408.797 113.211 410.727 112.359 412.039 110.656C413.367 108.938 414.031 106.43 414.031 103.133C414.031 99.8672 413.367 97.3906 412.039 95.7031C410.727 94 408.781 93.1484 406.203 93.1484C403.656 93.1484 401.734 93.9844 400.438 95.6562C399.141 97.3281 398.492 99.8203 398.492 103.133ZM428.797 116H424.906V79.5312H428.797V116ZM447.898 116.469C444.102 116.469 441.102 115.312 438.898 113C436.711 110.688 435.617 107.477 435.617 103.367C435.617 99.2266 436.633 95.9375 438.664 93.5C440.711 91.0625 443.453 89.8438 446.891 89.8438C450.109 89.8438 452.656 90.9062 454.531 93.0312C456.406 95.1406 457.344 97.9297 457.344 101.398V103.859H439.648C439.727 106.875 440.484 109.164 441.922 110.727C443.375 112.289 445.414 113.07 448.039 113.07C450.805 113.07 453.539 112.492 456.242 111.336V114.805C454.867 115.398 453.562 115.82 452.328 116.07C451.109 116.336 449.633 116.469 447.898 116.469ZM446.844 93.1016C444.781 93.1016 443.133 93.7734 441.898 95.1172C440.68 96.4609 439.961 98.3203 439.742 100.695H453.172C453.172 98.2422 452.625 96.3672 451.531 95.0703C450.438 93.7578 448.875 93.1016 446.844 93.1016ZM481.578 116V99.3828C481.578 97.2891 481.102 95.7266 480.148 94.6953C479.195 93.6641 477.703 93.1484 475.672 93.1484C472.984 93.1484 471.016 93.875 469.766 95.3281C468.516 96.7812 467.891 99.1797 467.891 102.523V116H464V90.3125H467.164L467.797 93.8281H467.984C468.781 92.5625 469.898 91.5859 471.336 90.8984C472.773 90.1953 474.375 89.8438 476.141 89.8438C479.234 89.8438 481.562 90.5938 483.125 92.0938C484.688 93.5781 485.469 95.9609 485.469 99.2422V116H481.578ZM503.75 116.469C500.031 116.469 497.148 115.328 495.102 113.047C493.07 110.75 492.055 107.508 492.055 103.32C492.055 99.0234 493.086 95.7031 495.148 93.3594C497.227 91.0156 500.18 89.8438 504.008 89.8438C505.242 89.8438 506.477 89.9766 507.711 90.2422C508.945 90.5078 509.914 90.8203 510.617 91.1797L509.422 94.4844C508.562 94.1406 507.625 93.8594 506.609 93.6406C505.594 93.4062 504.695 93.2891 503.914 93.2891C498.695 93.2891 496.086 96.6172 496.086 103.273C496.086 106.43 496.719 108.852 497.984 110.539C499.266 112.227 501.156 113.07 503.656 113.07C505.797 113.07 507.992 112.609 510.242 111.688V115.133C508.523 116.023 506.359 116.469 503.75 116.469ZM527.211 116.469C523.414 116.469 520.414 115.312 518.211 113C516.023 110.688 514.93 107.477 514.93 103.367C514.93 99.2266 515.945 95.9375 517.977 93.5C520.023 91.0625 522.766 89.8438 526.203 89.8438C529.422 89.8438 531.969 90.9062 533.844 93.0312C535.719 95.1406 536.656 97.9297 536.656 101.398V103.859H518.961C519.039 106.875 519.797 109.164 521.234 110.727C522.688 112.289 524.727 113.07 527.352 113.07C530.117 113.07 532.852 112.492 535.555 111.336V114.805C534.18 115.398 532.875 115.82 531.641 116.07C530.422 116.336 528.945 116.469 527.211 116.469ZM526.156 93.1016C524.094 93.1016 522.445 93.7734 521.211 95.1172C519.992 96.4609 519.273 98.3203 519.055 100.695H532.484C532.484 98.2422 531.938 96.3672 530.844 95.0703C529.75 93.7578 528.188 93.1016 526.156 93.1016Z" fill="white"/>
</svg>
