<?xml version="1.0" encoding="UTF-8" standalone="no"?>
<svg
   xmlns:dc="http://purl.org/dc/elements/1.1/"
   xmlns:cc="http://creativecommons.org/ns#"
   xmlns:rdf="http://www.w3.org/1999/02/22-rdf-syntax-ns#"
   xmlns:svg="http://www.w3.org/2000/svg"
   xmlns="http://www.w3.org/2000/svg"
   xmlns:sodipodi="http://sodipodi.sourceforge.net/DTD/sodipodi-0.dtd"
   xmlns:inkscape="http://www.inkscape.org/namespaces/inkscape"
   inkscape:version="1.0 (4035a4fb49, 2020-05-01)"
   height="76.612617"
   width="222.54517"
   sodipodi:docname="duke_wordmark_navyblue_012169.svg"
   xml:space="preserve"
   enable-background="new 0 0 612 301.1"
   viewBox="0 0 222.54517 76.612616"
   y="0px"
   x="0px"
   id="Layer_1"
   version="1.1"><metadata
   id="metadata42"><rdf:RDF><cc:Work
       rdf:about=""><dc:format>image/svg+xml</dc:format><dc:type
         rdf:resource="http://purl.org/dc/dcmitype/StillImage" /><dc:title>Artboard 2</dc:title></cc:Work></rdf:RDF></metadata><defs
   id="defs40" /><sodipodi:namedview
   inkscape:current-layer="Layer_1"
   inkscape:window-maximized="0"
   inkscape:window-y="0"
   inkscape:window-x="0"
   inkscape:cy="36.95"
   inkscape:cx="110.71916"
   inkscape:zoom="1.7565359"
   fit-margin-bottom="0"
   fit-margin-right="0"
   fit-margin-left="0"
   fit-margin-top="0"
   showgrid="false"
   id="namedview38"
   inkscape:window-height="480"
   inkscape:window-width="731"
   inkscape:pageshadow="2"
   inkscape:pageopacity="0"
   guidetolerance="10"
   gridtolerance="10"
   objecttolerance="10"
   borderopacity="1"
   bordercolor="#666666"
   pagecolor="#ffffff" />
<title
   id="title27">Artboard 2</title>
<path
   id="path29"
   d="m 13.91916,74.5 c -1.6,0 -3.4,0.1 -5.2999998,0.2 -1.9,0.1 -3.5,0.2 -4.8,0.2 -0.4,0 -0.8,0 -1.2,-0.1 -0.5,0 -0.8,-0.4 -0.8,-0.9 0,0 0,0 0,-0.1 0,-0.5 0.3,-1 0.8,-1.3 1,-0.6 2.2,-1 3.4,-1.1 0.6,-0.1 1.2,-0.2 1.8,-0.4 0.6,-0.2 1.2,-0.5 1.6,-1 0.5,-0.6 0.8999998,-1.3 1.1999998,-2.1 0.3,-1.2 0.5,-2.5 0.4,-3.8 V 11.4 c 0,-0.5 -0.3,-1 -0.8,-1.2 C 9.6191602,9.9 8.9191602,9.7 8.2191602,9.6 c -0.8,-0.1 -1.6,-0.2 -2.5,-0.2 -0.9,0 -1.7,-0.1 -2.4,-0.2 -1.3,-0.1 -2.1,-0.3 -2.60000003,-0.4 -0.5,-0.1 -0.8,-0.6 -0.7,-1.1 0,-0.4 0.2,-0.8 0.5,-1.1 0.3,-0.3 0.70000003,-0.5 1.20000003,-0.6 0.5,-0.1 0.9,-0.2 1.4,-0.2 0.5,0 0.9,-0.1 1.3,-0.1 H 14.61916 c 2.8,0 5.6,-0.1 8.4,-0.3 2.8,-0.2 6,-0.3 9.6,-0.3 5.6,0 11.2,0.7 16.6,2.2 4.9,1.4 9.5,3.7 13.5,6.9 3.9,3.3 7.1,7.4 9.1,12 2.4,5.5 3.5,11.4 3.4,17.4 0,4.1 -0.9,8.2 -2.8,11.9 -1.8,3.7 -4.3,7 -7.5,9.7 -3.3,2.8 -7,5.1 -11,6.6 -4.3,1.6 -8.9,2.4 -13.5,2.4 h -26.5 m 6.7,-13.7 c 0,1.8 0.4,3.5 1.2,5 0.8,1.4 1.9,2.6 3.3,3.5 1.4,1 3,1.7 4.6,2.1 1.7,0.4 3.5,0.7 5.3,0.7 1.8,0 3.6,-0.3 5.3,-0.7 2.2,-0.5 4.3,-1.2 6.3,-2.1 2.3,-1 4.5,-2.3 6.5,-3.8 2.2,-1.6 4.2,-3.5 5.8,-5.7 1.8,-2.3 3.2,-4.9 4.2,-7.7 1.1,-3.3 1.6,-6.7 1.6,-10.1 0,-3.5 -0.5,-7.1 -1.6,-10.4 -1.9,-5.9 -5.6,-11 -10.5,-14.8 -2.3,-1.7 -4.8,-3.3 -7.4,-4.5 -4.8,-2.2 -9.9,-3.4 -15.2,-3.5 -1.8,0 -3.6,0.1 -5.4,0.3 -1,0.1 -1.9,0.4 -2.8,0.8 -0.5,0.2 -0.9,0.7 -1.1,1.2 -0.1,0.4 -0.2,0.8 -0.2,1.2 z"
   fill="#012169" />
<path
   id="path31"
   d="m 98.01916,76.5 c -2.2,0.1 -4.5,-0.3 -6.6,-1.1 -1.7,-0.7 -3.1,-1.8 -4.1,-3.2 -1,-1.5 -1.8,-3.2 -2.1,-5 -0.4,-2.1 -0.6,-4.3 -0.6,-6.5 0,-1.7 0,-3.6 0.1,-5.7 0,-2.1 0.1,-4.2 0.1,-6.3 0,-2.2 0,-4.3 0.1,-6.3 0,-2.1 0.1,-3.9 0.1,-5.5 0.1,-0.7 -0.4,-1.4 -1.1,-1.6 -0.7,-0.2 -1.5,-0.4 -2.1,-0.6 -0.9,-0.2 -1.8,-0.5 -2.7,-0.8 -0.4,-0.1 -0.7,-0.4 -0.7,-0.8 0,-0.4 0.3,-0.8 0.7,-0.9 0,0 0,0 0.1,0 0.7,-0.1 1.3,-0.1 2,-0.1 0.8,0 1.6,0 2.4,0.1 0.8,0.1 1.6,0.1 2.4,0.1 0.8,0 1.7,0 2.5,-0.1 0.8,-0.1 1.7,-0.1 2.5,-0.1 0.8,0 1.2,0.1 1.4,0.4 0.2,0.5 0.3,1.1 0.3,1.7 0,5 0,10 -0.1,15 -0.1,5 -0.1,9.9 -0.1,15 -0.1,2 0.8,4 2.3,5.3 1.9,1.3 4.2,2 6.5,1.8 2.5,0.1 4.9,-0.2 7.3,-0.9 1.5,-0.4 2.8,-1.2 4,-2.3 0.9,-0.9 1.5,-2 1.7,-3.2 0.3,-1.1 0.4,-2.3 0.4,-3.5 0,-4 0,-8 0.1,-12 0.1,-4 0.1,-7.9 0.1,-12 0,-0.3 -0.1,-0.5 -0.2,-0.8 -0.2,-0.3 -0.5,-0.5 -0.8,-0.6 -0.4,-0.1 -1,-0.3 -1.7,-0.5 -0.7,-0.2 -1.8,-0.5 -3.1,-0.8 -0.4,-0.1 -1.1,-0.4 -2,-0.7 -0.9,-0.3 -1.3,-0.7 -1.3,-1.1 0,-0.4 0.3,-0.6 0.8,-0.7 0.6,-0.1 1.1,-0.2 1.7,-0.2 1,0 1.9,0 2.9,0.1 0.9,0.1 1.9,0.1 2.9,0.1 1.1,0 2.2,0 3.3,-0.1 1.1,-0.1 2.2,-0.1 3.3,-0.1 0.5,0 1,0.2 1.5,0.4 0.6,0.3 0.9,0.9 0.9,2 0,5.7 -0.1,11.3 -0.2,17 -0.1,5.6 -0.2,11.3 -0.2,17 0,1.2 0.4,1.9 1.1,2.2 0.6,0.3 1.2,0.4 1.8,0.4 2.2,0 3.7,0 4.5,0.1 0.9,0.1 1.3,0.4 1.3,1 0,0.4 -0.2,0.7 -0.5,0.9 -0.6,0.2 -1.1,0.4 -1.7,0.4 -4,0.6 -7.1,1.1 -9.3,1.5 -1.4,0.3 -2.8,0.5 -4.2,0.7 -0.4,0 -0.7,-0.2 -0.8,-0.5 -0.1,-0.4 -0.1,-0.9 -0.1,-1.3 v -2.6 c 0,-0.9 -0.3,-1.3 -0.8,-1.3 -0.7,0.1 -1.4,0.5 -1.9,1 -0.8,0.7 -1.9,1.4 -3.2,2.3 -1.4,0.9 -3,1.7 -4.6,2.3 -2.3,0.7 -4.3,1.1 -6.3,1"
   fill="#012169" />
<path
   id="path33"
   d="m 140.41916,10.7 c 0.1,-1.1 -0.2,-2.3 -0.8,-3.2 -0.5,-0.6 -1.2,-1.1 -1.9,-1.3 -0.7,-0.3 -1.3,-0.5 -1.9,-0.6 -0.5,-0.1 -0.9,-0.5 -0.8,-1 0,-0.4 0.2,-0.7 0.6,-0.8 0.6,-0.3 1.2,-0.5 1.8,-0.7 l 7.6,-2.9 c 0.3,-0.1 0.6,-0.2 0.9,-0.2 h 1 c 0.3,0 0.6,0.2 0.8,0.4 0.3,0.5 0.5,1.1 0.4,1.6 v 46.1 c 0,1.2 0.3,1.8 1,1.8 0.6,-0.2 1.2,-0.4 1.7,-0.7 1,-0.5 2.2,-1.1 3.5,-1.9 1.3,-0.8 2.8,-1.7 4.3,-2.6 1.5,-1 2.9,-1.9 4.2,-2.8 1.3,-0.9 2.3,-1.7 3.2,-2.4 0.9,-0.7 1.3,-1.3 1.3,-1.6 0,-0.6 -0.2,-1.3 -0.7,-1.7 -0.4,-0.4 -0.9,-0.7 -1.5,-1 -0.5,-0.3 -1,-0.5 -1.5,-0.8 -0.4,-0.2 -0.7,-0.6 -0.7,-1.1 0,-0.3 0.2,-0.6 0.5,-0.8 0.3,-0.2 0.7,-0.3 1.1,-0.3 1.2,0 2.6,0 4.1,0.1 1.5,0.1 3,0.1 4.5,0.1 1.4,0 2.9,0 4.4,-0.1 1.5,-0.1 2.9,-0.1 4,-0.1 0.5,0 1,0.1 1.5,0.2 0.5,0.2 0.7,0.6 0.7,1.1 0,0.3 -0.2,0.6 -0.6,0.8 -0.5,0.3 -1,0.5 -1.5,0.7 -0.6,0.2 -1.2,0.4 -1.9,0.6 -0.6,0.2 -1.1,0.4 -1.5,0.5 -0.8,0.4 -2.4,1.2 -4.8,2.5 -2.4,1.3 -4.8,2.7 -7.3,4.2 -2.5,1.5 -4.7,2.9 -6.7,4.2 -1.9,1.3 -2.9,2.1 -2.9,2.4 0,0.3 0.1,0.7 0.3,1 0.2,0.2 0.4,0.4 0.6,0.6 l 19.4,17.6 c 1,0.9 2.1,1.7 3.3,2.4 1.1,0.5 2,1 2.9,1.3 0.8,0.3 1.5,0.6 2,0.8 0.5,0.2 0.7,0.5 0.7,0.9 0,0.7 -1,1.1 -2.9,1.1 -1.2,0 -2.5,-0.1 -3.9,-0.2 -1.4,-0.1 -3,-0.2 -4.7,-0.2 -1.4,0 -2.8,0.1 -4.3,0.2 -1.3,0.1 -2.7,0.2 -4,0.2 -0.9,0 -1.7,0 -2.6,-0.2 -0.5,-0.1 -0.8,-0.5 -0.8,-0.9 0,-0.5 0.4,-1 0.9,-1.1 0.8,-0.2 1.6,-0.4 2.4,-0.5 0.5,-0.1 1.1,-0.2 1.5,-0.6 0.4,-0.2 0.6,-0.6 0.6,-1 0,-0.4 -0.4,-1 -1.2,-1.8 l -16.9,-16 c -0.5,-0.4 -0.8,-0.7 -1,-0.7 -0.5,0 -0.8,0.2 -0.8,0.6 v 15.9 c -0.1,1 0.2,1.9 0.8,2.6 0.5,0.4 1,0.8 1.6,0.9 0.7,0.3 1.5,0.5 2.3,0.6 0.6,0.1 1,0.4 1,1 0,0.4 -0.3,0.7 -0.8,0.9 -0.6,0.1 -1.2,0.2 -1.7,0.2 -1.3,0 -2.6,-0.1 -3.8,-0.2 -1.2,-0.1 -2.5,-0.2 -3.7,-0.2 -1.4,0 -2.8,0.1 -4.3,0.2 -1.5,0.1 -2.8,0.2 -3.8,0.2 -0.5,0 -1.1,-0.1 -1.6,-0.2 -0.7,-0.1 -1.1,-0.4 -1.1,-1 0,-0.4 0.2,-0.9 0.6,-1.1 0.5,-0.2 1,-0.4 1.5,-0.5 0.7,-0.2 1.5,-0.4 2.1,-0.6 0.6,-0.1 1.2,-0.4 1.8,-0.7 0.5,-0.3 0.9,-0.8 1.2,-1.3 0.3,-0.9 0.4,-1.8 0.4,-2.7 l -0.1,-56.2"
   fill="#012169" />
<path
   id="path35"
   d="m 193.21916,48.5 c -0.2,0.5 -0.2,1 -0.2,1.6 v 2.4 c 0,2.3 0.2,4.7 0.6,7 0.4,2.1 1.2,4.2 2.4,6 1.3,1.8 3,3.3 4.9,4.2 2.6,1.2 5.5,1.7 8.3,1.6 1.7,0.1 3.4,-0.2 5,-0.7 1,-0.3 2,-0.9 2.8,-1.5 0.6,-0.5 1.1,-1 1.6,-1.6 0.3,-0.4 0.7,-0.7 1.2,-0.7 0.7,0 1,0.3 1,0.9 -0.2,0.6 -0.5,1.2 -0.9,1.7 -0.8,1.2 -1.8,2.2 -2.9,3 -1.6,1.2 -3.3,2.2 -5.1,2.9 -2.4,0.9 -4.9,1.4 -7.4,1.3 -6.2,0 -11,-2 -14.4,-6.1 -3.4,-4.1 -5.1,-9.6 -5.1,-16.7 0,-2.8 0.4,-5.5 1.2,-8.1 0.8,-2.7 2.1,-5.3 3.7,-7.6 1.7,-2.3 3.9,-4.2 6.3,-5.7 2.8,-1.6 5.9,-2.3 9.1,-2.2 2.8,-0.1 5.6,0.5 8.1,1.8 2,1.1 3.9,2.5 5.3,4.3 1.3,1.5 2.3,3.3 2.9,5.2 0.5,1.4 0.8,2.9 0.9,4.5 0.1,0.7 -0.1,1.4 -0.4,2.1 -0.3,0.3 -0.9,0.5 -1.8,0.5 l -27.1,-0.1 m 10.7,-3.4 c 2,0 4,-0.1 5.9,-0.3 1.2,-0.1 2.4,-0.4 3.5,-1 0.7,-0.3 1.3,-0.9 1.6,-1.7 0.3,-0.8 0.4,-1.7 0.4,-2.6 0,-1.9 -0.9,-3.7 -2.4,-4.9 -1.7,-1.3 -3.8,-2 -5.9,-2 -1.9,0 -3.8,0.4 -5.4,1.3 -1.5,0.8 -2.9,1.8 -4,3.1 -1,1.1 -1.9,2.3 -2.5,3.7 -0.5,1 -0.8,2.1 -0.9,3.2 0,0.2 0,0.4 0.2,0.5 0.3,0.2 0.7,0.3 1.1,0.3 0.6,0.1 1.6,0.1 2.9,0.2 1.2,0.2 3.1,0.2 5.5,0.2 z"
   fill="#012169" />
</svg>
